<?xml version="1.0" encoding="UTF-8"?>
<!DOCTYPE svg PUBLIC "-//W3C//DTD SVG 1.1//EN" "http://www.w3.org/Graphics/SVG/1.1/DTD/svg11.dtd">
<svg xmlns="http://www.w3.org/2000/svg" version="1.1" width="512px" height="512px" style="shape-rendering:geometricPrecision; text-rendering:geometricPrecision; image-rendering:optimizeQuality; fill-rule:evenodd; clip-rule:evenodd" xmlns:xlink="http://www.w3.org/1999/xlink">
<g><path style="opacity:0.942" fill="#122436" d="M 254.5,29.5 C 311.413,30.2415 361.413,48.9082 404.5,85.5C 413.833,76.5 423.167,67.5 432.5,58.5C 433.806,59.9122 434.64,61.5789 435,63.5C 442.346,91.2161 449.846,118.883 457.5,146.5C 455.926,147.631 454.259,147.798 452.5,147C 424.008,139.628 395.674,131.794 367.5,123.5C 376.319,114.181 385.319,105.014 394.5,96C 354.22,62.0487 307.553,44.5487 254.5,43.5C 254.5,38.8333 254.5,34.1667 254.5,29.5 Z"/></g>
<g><path style="opacity:0.87" fill="#122436" d="M 232.5,30.5 C 235.833,30.5 239.167,30.5 242.5,30.5C 242.228,34.9017 242.561,39.2351 243.5,43.5C 238.901,44.6582 234.234,45.3249 229.5,45.5C 228.833,40.8333 228.167,36.1667 227.5,31.5C 229.415,31.7845 231.081,31.4511 232.5,30.5 Z"/></g>
<g><path style="opacity:0.851" fill="#122436" d="M 212.5,33.5 C 213.5,33.5 214.5,33.5 215.5,33.5C 215.949,37.5271 216.616,41.5271 217.5,45.5C 217.167,46.1667 216.833,46.8333 216.5,47.5C 212.626,48.4401 208.792,49.4401 205,50.5C 202.736,46.1107 201.736,41.4441 202,36.5C 205.61,35.5522 209.11,34.5522 212.5,33.5 Z"/></g>
<g><path style="opacity:0.846" fill="#122436" d="M 187.5,39.5 C 189.648,42.4026 191.148,45.7359 192,49.5C 192.667,50.8333 192.667,52.1667 192,53.5C 188.427,55.0251 184.76,56.3585 181,57.5C 177.756,53.7668 176.089,49.4335 176,44.5C 179.876,42.716 183.709,41.0493 187.5,39.5 Z"/></g>
<g><path style="opacity:0.85" fill="#122436" d="M 161.5,49.5 C 162.496,49.4142 163.329,49.7476 164,50.5C 165.362,54.058 166.862,57.558 168.5,61C 168.355,61.772 168.022,62.4387 167.5,63C 163.921,64.7059 160.421,66.5392 157,68.5C 154.579,64.6597 152.412,60.6597 150.5,56.5C 154.026,53.9062 157.692,51.5729 161.5,49.5 Z"/></g>
<g><path style="opacity:0.834" fill="#122436" d="M 137.5,62.5 C 138.496,62.4142 139.329,62.7476 140,63.5C 142.041,67.0838 144.208,70.5838 146.5,74C 142.833,76.5 139.167,79 135.5,81.5C 131.958,78.121 128.958,74.2876 126.5,70C 130.345,67.637 134.011,65.137 137.5,62.5 Z"/></g>
<g><path style="opacity:0.973" fill="#142537" d="M 511.5,225.5 C 511.5,283.5 511.5,341.5 511.5,399.5C 509.017,406.148 504.35,410.648 497.5,413C 480.5,413.333 463.5,413.667 446.5,414C 443.107,414.394 440.94,416.227 440,419.5C 439.667,436.833 439.333,454.167 439,471.5C 435.452,478.435 429.952,480.602 422.5,478C 405.517,458.888 389.35,439.055 374,418.5C 372.363,416.19 370.196,414.69 367.5,414C 312.5,413.667 257.5,413.333 202.5,413C 195.572,410.406 191.072,405.573 189,398.5C 188.5,361.502 188.333,324.502 188.5,287.5C 172.83,287.333 157.163,287.5 141.5,288C 132.304,298.033 123.637,308.533 115.5,319.5C 114.833,319.5 114.5,319.833 114.5,320.5C 106.364,330.145 98.3641,339.978 90.5,350C 82.4674,354.21 76.3008,352.377 72,344.5C 71.6667,327.167 71.3333,309.833 71,292.5C 70.4257,290.508 69.259,289.008 67.5,288C 49.1231,287.933 30.7897,287.266 12.5,286C 5.88836,283.558 1.55503,279.058 -0.5,272.5C -0.5,214.833 -0.5,157.167 -0.5,99.5C 2.17668,91.3337 7.84335,86.5003 16.5,85C 47.1667,84.6667 77.8333,84.3333 108.5,84C 111.312,82.0227 113.978,79.856 116.5,77.5C 118.167,79.5 119.833,81.5 121.5,83.5C 184.208,84.0144 246.875,84.8478 309.5,86C 315.828,88.4821 319.994,92.9821 322,99.5C 322.5,136.832 322.667,174.165 322.5,211.5C 344.843,211.833 367.177,211.5 389.5,210.5C 388.754,209.264 388.421,207.93 388.5,206.5C 393.097,204.968 397.764,203.635 402.5,202.5C 402.851,205.238 403.518,207.904 404.5,210.5C 435.161,211.333 465.828,211.833 496.5,212C 503.593,214.263 508.593,218.763 511.5,225.5 Z"/></g>
<g><path style="opacity:1" fill="#fefefe" d="M 308.5,112.5 C 210.861,111.34 113.195,111.174 15.5,112C 14.4734,112.513 13.4734,113.013 12.5,113.5C 12.3347,109.818 12.5014,106.152 13,102.5C 14.1667,101.333 15.3333,100.167 16.5,99C 112.5,98.3333 208.5,98.3333 304.5,99C 306.333,99.5 307.5,100.667 308,102.5C 308.498,105.817 308.665,109.15 308.5,112.5 Z"/></g>
<g><path style="opacity:1" fill="#fecc35" d="M 308.5,112.5 C 308.5,145.5 308.5,178.5 308.5,211.5C 275.5,211.5 242.5,211.5 209.5,211.5C 207.36,193.523 197.36,182.69 179.5,179C 178.397,177.32 178.73,175.82 180.5,174.5C 179.636,172.803 178.303,171.637 176.5,171C 171.844,170.335 167.177,169.835 162.5,169.5C 162.5,172.167 162.5,174.833 162.5,177.5C 157.473,177.503 152.473,177.836 147.5,178.5C 147.5,175.167 147.5,171.833 147.5,168.5C 161.812,167.406 176.145,166.74 190.5,166.5C 190.24,160.828 189.907,155.161 189.5,149.5C 176.235,151.373 162.902,152.706 149.5,153.5C 149.291,147.718 150.291,142.218 152.5,137C 152.576,134.244 151.243,133.077 148.5,133.5C 144.03,132.514 139.363,132.181 134.5,132.5C 134.5,133.833 134.5,135.167 134.5,136.5C 134.5,142.5 134.5,148.5 134.5,154.5C 126.5,154.5 118.5,154.5 110.5,154.5C 111.556,159.781 112.223,165.114 112.5,170.5C 119.167,170.5 125.833,170.5 132.5,170.5C 132.666,175.179 132.499,179.845 132,184.5C 120,191.837 111.667,202.171 107,215.5C 105.664,224.168 106.664,232.502 110,240.5C 115.237,246.261 121.737,248.095 129.5,246C 135.156,244.421 140.323,241.921 145,238.5C 146.767,239.34 148.101,240.673 149,242.5C 152.957,239.444 156.791,236.278 160.5,233C 159.637,230.773 158.637,228.607 157.5,226.5C 165.353,215.794 171.353,204.127 175.5,191.5C 189.209,195.228 195.209,204.228 193.5,218.5C 191.36,221.966 189.694,225.633 188.5,229.5C 179.657,233.545 170.324,236.045 160.5,237C 163.389,241.953 166.389,246.787 169.5,251.5C 175.841,250.165 182.174,248.832 188.5,247.5C 188.5,256.167 188.5,264.833 188.5,273.5C 171.83,273.333 155.163,273.5 138.5,274C 133.142,276.354 128.642,279.854 125,284.5C 111.952,300.709 99.1189,317.042 86.5,333.5C 85.8333,319.833 85.1667,306.167 84.5,292.5C 83.76,282.923 78.76,276.756 69.5,274C 51.8333,273.667 34.1667,273.333 16.5,273C 15.3333,271.833 14.1667,270.667 13,269.5C 12.5,217.501 12.3333,165.501 12.5,113.5C 13.4734,113.013 14.4734,112.513 15.5,112C 113.195,111.174 210.861,111.34 308.5,112.5 Z"/></g>
<g><path style="opacity:0.835" fill="#122436" d="M 331.5,119.5 C 335.917,121.751 339.917,124.585 343.5,128C 341.131,131.902 338.631,135.735 336,139.5C 332.167,137 328.333,134.5 324.5,132C 326.719,127.725 329.052,123.559 331.5,119.5 Z"/></g>
<g><path style="opacity:1" fill="#ffe9a9" d="M 148.5,133.5 C 144.167,133.5 139.833,133.5 135.5,133.5C 135.737,134.791 135.404,135.791 134.5,136.5C 134.5,135.167 134.5,133.833 134.5,132.5C 139.363,132.181 144.03,132.514 148.5,133.5 Z"/></g>
<g><path style="opacity:1" fill="#fffefb" d="M 148.5,133.5 C 151.243,133.077 152.576,134.244 152.5,137C 150.291,142.218 149.291,147.718 149.5,153.5C 162.902,152.706 176.235,151.373 189.5,149.5C 189.907,155.161 190.24,160.828 190.5,166.5C 176.145,166.74 161.812,167.406 147.5,168.5C 147.5,171.833 147.5,175.167 147.5,178.5C 152.473,177.836 157.473,177.503 162.5,177.5C 162.5,174.833 162.5,172.167 162.5,169.5C 167.177,169.835 171.844,170.335 176.5,171C 178.303,171.637 179.636,172.803 180.5,174.5C 178.73,175.82 178.397,177.32 179.5,179C 197.36,182.69 207.36,193.523 209.5,211.5C 203.528,212.147 198.195,214.481 193.5,218.5C 195.209,204.228 189.209,195.228 175.5,191.5C 171.353,204.127 165.353,215.794 157.5,226.5C 158.637,228.607 159.637,230.773 160.5,233C 156.791,236.278 152.957,239.444 149,242.5C 148.101,240.673 146.767,239.34 145,238.5C 140.323,241.921 135.156,244.421 129.5,246C 121.737,248.095 115.237,246.261 110,240.5C 106.664,232.502 105.664,224.168 107,215.5C 111.667,202.171 120,191.837 132,184.5C 132.499,179.845 132.666,175.179 132.5,170.5C 125.833,170.5 119.167,170.5 112.5,170.5C 112.223,165.114 111.556,159.781 110.5,154.5C 118.5,154.5 126.5,154.5 134.5,154.5C 134.5,148.5 134.5,142.5 134.5,136.5C 135.404,135.791 135.737,134.791 135.5,133.5C 139.833,133.5 144.167,133.5 148.5,133.5 Z"/></g>
<g><path style="opacity:0.847" fill="#122436" d="M 353.5,135.5 C 357.606,138.429 361.606,141.596 365.5,145C 362,148.5 358.5,152 355,155.5C 351.833,152.333 348.667,149.167 345.5,146C 348.383,142.624 351.049,139.124 353.5,135.5 Z"/></g>
<g><path style="opacity:0.831" fill="#122436" d="M 373.5,154.5 C 377.032,157.871 380.032,161.705 382.5,166C 379.29,169.289 375.623,172.123 371.5,174.5C 368.707,171.072 366.04,167.572 363.5,164C 366.708,160.624 370.041,157.457 373.5,154.5 Z"/></g>
<g><path style="opacity:0.839" fill="#122436" d="M 388.5,177.5 C 389.496,177.414 390.329,177.748 391,178.5C 392.833,182.167 394.667,185.833 396.5,189.5C 392.864,192.323 388.864,194.656 384.5,196.5C 382.11,192.887 380.11,189.054 378.5,185C 381.628,182.265 384.962,179.765 388.5,177.5 Z"/></g>
<g><path style="opacity:1" fill="#ffcf41" d="M 151.5,191.5 C 154.187,191.336 156.854,191.503 159.5,192C 157.244,198.438 154.41,204.604 151,210.5C 149.049,204.659 148.216,198.659 148.5,192.5C 149.791,192.737 150.791,192.404 151.5,191.5 Z"/></g>
<g><path style="opacity:1" fill="#ffce3d" d="M 132.5,200.5 C 133.117,200.611 133.617,200.944 134,201.5C 135.672,209.502 137.005,217.502 138,225.5C 133.483,230.344 127.983,232.178 121.5,231C 119.072,226.704 118.906,222.204 121,217.5C 123.881,211.132 127.714,205.465 132.5,200.5 Z"/></g>
<g><path style="opacity:1" fill="#fcfdfe" d="M 498.5,240.5 C 497.234,239.91 495.901,239.41 494.5,239C 397.46,238.169 300.46,238.336 203.5,239.5C 202.516,236.572 202.183,233.572 202.5,230.5C 202.859,228.629 203.859,227.129 205.5,226C 301.833,225.333 398.167,225.333 494.5,226C 495.667,227.167 496.833,228.333 498,229.5C 498.499,233.152 498.665,236.818 498.5,240.5 Z"/></g>
<g><path style="opacity:1" fill="#fffefb" d="M 188.5,229.5 C 188.5,235.5 188.5,241.5 188.5,247.5C 182.174,248.832 175.841,250.165 169.5,251.5C 166.389,246.787 163.389,241.953 160.5,237C 170.324,236.045 179.657,233.545 188.5,229.5 Z"/></g>
<g><path style="opacity:1" fill="#4ea3da" d="M 202.5,230.5 C 202.183,233.572 202.516,236.572 203.5,239.5C 300.46,238.336 397.46,238.169 494.5,239C 495.901,239.41 497.234,239.91 498.5,240.5C 498.987,292.893 498.487,345.226 497,397.5C 495.829,398.893 494.329,399.727 492.5,400C 475.167,400.333 457.833,400.667 440.5,401C 433.175,403.822 428.509,408.989 426.5,416.5C 425.833,431.167 425.167,445.833 424.5,460.5C 410.5,442.995 396.666,425.329 383,407.5C 380.01,404.509 376.51,402.343 372.5,401C 317.167,400.667 261.833,400.333 206.5,400C 204.274,398.773 202.774,396.939 202,394.5C 201.168,339.665 201.335,284.998 202.5,230.5 Z"/></g>
<g><path style="opacity:1" fill="#fdfefe" d="M 400.5,360.5 C 400.5,364.5 400.5,368.5 400.5,372.5C 388.833,372.5 377.167,372.5 365.5,372.5C 365.5,368.5 365.5,364.5 365.5,360.5C 367.435,359.85 369.435,359.517 371.5,359.5C 371.082,354.414 369.749,349.58 367.5,345C 355.838,344.5 344.171,344.333 332.5,344.5C 331.167,349.5 329.833,354.5 328.5,359.5C 330.861,359.674 333.194,360.007 335.5,360.5C 335.5,364.833 335.5,369.167 335.5,373.5C 323.5,373.5 311.5,373.5 299.5,373.5C 299.5,369.167 299.5,364.833 299.5,360.5C 302.127,359.908 304.794,359.575 307.5,359.5C 317.495,329.014 327.995,298.681 339,268.5C 346.667,267.167 354.333,267.167 362,268.5C 372.351,299.056 383.184,329.39 394.5,359.5C 396.409,360.348 398.409,360.682 400.5,360.5 Z"/></g>
<g><path style="opacity:1" fill="#968235" d="M 84.5,292.5 C 85.1667,306.167 85.8333,319.833 86.5,333.5C 86.44,334.043 86.1067,334.376 85.5,334.5C 84.5008,320.516 84.1674,306.516 84.5,292.5 Z"/></g>
<g><path style="opacity:1" fill="#5aa9dd" d="M 349.5,291.5 C 350.117,291.611 350.617,291.944 351,292.5C 354.941,304.821 358.774,317.155 362.5,329.5C 354.5,329.5 346.5,329.5 338.5,329.5C 341.855,316.75 345.521,304.083 349.5,291.5 Z"/></g>
<g><path style="opacity:0.839" fill="#122436" d="M 114.5,320.5 C 115.167,320.5 115.5,320.167 115.5,319.5C 119.385,317.974 123.219,316.308 127,314.5C 129.039,318.745 131.206,322.912 133.5,327C 129.374,328.966 125.374,331.132 121.5,333.5C 118.395,329.626 116.062,325.292 114.5,320.5 Z"/></g>
<g><path style="opacity:0.834" fill="#122436" d="M 138.5,336.5 C 142.179,339.474 145.179,343.141 147.5,347.5C 144.172,350.658 140.672,353.658 137,356.5C 133.767,352.937 130.933,349.104 128.5,345C 131.687,341.92 135.02,339.086 138.5,336.5 Z"/></g>
<g><path style="opacity:0.835" fill="#122436" d="M 155.5,355.5 C 158.985,358.485 162.319,361.652 165.5,365C 162.671,368.661 159.671,372.161 156.5,375.5C 152.981,372.146 149.314,368.98 145.5,366C 149.037,362.631 152.371,359.131 155.5,355.5 Z"/></g>
<g><path style="opacity:0.945" fill="#122436" d="M 53.5,364.5 C 54.9464,363.387 56.6131,363.22 58.5,364C 86.5056,371.501 114.506,379.001 142.5,386.5C 143.521,387.002 143.688,387.668 143,388.5C 134.319,397.014 125.819,405.681 117.5,414.5C 148.894,442.357 185.561,459.19 227.5,465C 237.18,465.875 246.847,466.709 256.5,467.5C 256.5,472.167 256.5,476.833 256.5,481.5C 199.573,480.754 149.573,462.088 106.5,425.5C 97.1667,434.5 87.8333,443.5 78.5,452.5C 69.8437,423.201 61.5104,393.868 53.5,364.5 Z"/></g>
<g><path style="opacity:0.834" fill="#122436" d="M 174.5,371.5 C 178.777,373.782 182.777,376.449 186.5,379.5C 184.25,383.668 181.75,387.668 179,391.5C 174.866,389.027 171.033,386.194 167.5,383C 169.964,379.238 172.297,375.405 174.5,371.5 Z"/></g>
<g><path style="opacity:1" fill="#cbe4f4" d="M 365.5,360.5 C 365.5,364.5 365.5,368.5 365.5,372.5C 377.167,372.5 388.833,372.5 400.5,372.5C 400.5,368.5 400.5,364.5 400.5,360.5C 401.485,364.634 401.818,368.968 401.5,373.5C 389.167,373.5 376.833,373.5 364.5,373.5C 364.182,368.968 364.515,364.634 365.5,360.5 Z"/></g>
<g><path style="opacity:1" fill="#2c5d7f" d="M 426.5,416.5 C 426.833,431.515 426.499,446.515 425.5,461.5C 424.893,461.376 424.56,461.043 424.5,460.5C 425.167,445.833 425.833,431.167 426.5,416.5 Z"/></g>
<g><path style="opacity:0.831" fill="#122436" d="M 374.5,429.5 C 375.675,429.281 376.675,429.614 377.5,430.5C 379.957,433.914 382.291,437.414 384.5,441C 380.633,443.698 376.633,446.198 372.5,448.5C 369.476,444.966 366.81,441.133 364.5,437C 368.08,434.723 371.414,432.223 374.5,429.5 Z"/></g>
<g><path style="opacity:0.845" fill="#122436" d="M 353.5,442.5 C 357.612,446.21 359.612,450.71 359.5,456C 355.833,457.833 352.167,459.667 348.5,461.5C 345.973,457.779 343.973,453.779 342.5,449.5C 346.026,446.906 349.692,444.573 353.5,442.5 Z"/></g>
<g><path style="opacity:0.854" fill="#122436" d="M 328.5,453.5 C 329.822,453.33 330.989,453.663 332,454.5C 333.113,458.508 334.613,462.341 336.5,466C 331.979,468.178 327.313,469.511 322.5,470C 320.498,466.004 319.332,461.838 319,457.5C 322.291,456.243 325.458,454.91 328.5,453.5 Z"/></g>
<g><path style="opacity:0.856" fill="#122436" d="M 305.5,460.5 C 306.117,460.611 306.617,460.944 307,461.5C 307.94,465.762 309.106,469.928 310.5,474C 305.614,475.638 300.614,476.805 295.5,477.5C 295.05,472.798 294.383,468.132 293.5,463.5C 297.687,462.787 301.687,461.787 305.5,460.5 Z"/></g>
<g><path style="opacity:0.869" fill="#122436" d="M 275.5,465.5 C 277.604,465.201 279.604,465.534 281.5,466.5C 282.411,470.788 283.078,475.121 283.5,479.5C 278.527,480.164 273.527,480.497 268.5,480.5C 268.5,475.833 268.5,471.167 268.5,466.5C 271.059,466.802 273.393,466.468 275.5,465.5 Z"/></g>
</svg>
